<?xml version="1.0" standalone="no"?><svg xmlns="http://www.w3.org/2000/svg" viewBox="0 0 1440 320"><path fill="#8552f2" fill-opacity="1" d="M0,288L15,266.7C30,245,60,203,90,208C120,213,150,267,180,266.7C210,267,240,213,270,202.7C300,192,330,224,360,202.7C390,181,420,107,450,85.3C480,64,510,96,540,112C570,128,600,128,630,117.3C660,107,690,85,720,69.3C750,53,780,43,810,64C840,85,870,139,900,181.3C930,224,960,256,990,240C1020,224,1050,160,1080,133.3C1110,107,1140,117,1170,133.3C1200,149,1230,171,1260,149.3C1290,128,1320,64,1350,48C1380,32,1410,64,1425,80L1440,96L1440,320L1425,320C1410,320,1380,320,1350,320C1320,320,1290,320,1260,320C1230,320,1200,320,1170,320C1140,320,1110,320,1080,320C1050,320,1020,320,990,320C960,320,930,320,900,320C870,320,840,320,810,320C780,320,750,320,720,320C690,320,660,320,630,320C600,320,570,320,540,320C510,320,480,320,450,320C420,320,390,320,360,320C330,320,300,320,270,320C240,320,210,320,180,320C150,320,120,320,90,320C60,320,30,320,15,320L0,320Z"></path></svg>